<svg xmlns="http://www.w3.org/2000/svg" width="50" height="51" fill="none"><path fill="#000" d="m45.289 20.52-.028-4.771 4.589-2.568L24.856 0 0 13.445l9.966 5.721.02 3.4.002.272.09-.044c-.104.143-.172.29-.17.436.008 1.672 6.758 2.995 15.09 2.95 8.327-.043 15.067-1.444 15.06-3.113 0-.146-.076-.289-.18-.435l.092.043v-.271l-.018-3.414 4.32-2.688.025 4.224a1.315 1.315 0 0 0-.803 1.218 1.297 1.297 0 0 0 1.31 1.292 1.3 1.3 0 0 0 1.3-1.306 1.32 1.32 0 0 0-.815-1.21Zm-20.298 4.509c-7.392.041-13.387-.77-13.393-1.807-.006-1.036 5.982-1.906 13.374-1.944 7.394-.041 13.387.767 13.39 1.801.007 1.033-5.977 1.91-13.37 1.95Zm14.62-8.809c-1-1.052-4.587-3.83-14.687-3.772-10.114.054-13.655 2.865-14.643 3.933l-.006-1.007s2.869-4.364 14.641-4.426c11.767-.063 14.69 4.268 14.69 4.268l.005 1.004Zm4.14 7.101-.508 7.388c1.575-2.474 2.89-1.553 2.89-1.553l-.031-5.847c-1.693.664-2.35.012-2.35.012Z"/><path fill="#141313" d="M34.648 36.916H15.335c-2.08 0-3.785 1.64-3.785 3.645 0 2.004 1.704 3.646 3.785 3.646h19.313c2.081 0 3.785-1.64 3.785-3.646.003-2.006-1.7-3.645-3.785-3.645Z"/><path fill="#fff" stroke="#000" stroke-width="2" d="M24.93 23.575c2.24 0 4.044.312 5.559 1.024 1.501.705 2.79 1.838 3.947 3.598 1.523 2.318 2.03 6.037 1.633 10.121l-.091.822c-.272 2.17-.51 3.734-.98 5.048-.456 1.271-1.141 2.33-2.364 3.434-2.042 1.844-4.887 2.294-7.526 2.294h-.357c-2.638 0-5.48-.45-7.525-2.294-1.222-1.103-1.907-2.163-2.363-3.434-.354-.985-.576-2.112-.78-3.529l-.2-1.52c-.551-4.403-.084-8.468 1.541-10.943 1.157-1.76 2.446-2.892 3.947-3.597 1.514-.712 3.32-1.024 5.56-1.024Z"/><path fill="#000" d="m28.78 29.061.108-.113.078-.088c.06-.07.116-.14.17-.212l.024-.031a3.21 3.21 0 0 0 .144-.218c.013-.02.026-.044.04-.064.043-.075.087-.15.128-.23a4.177 4.177 0 0 0 .271-.66l.009-.023a5.15 5.15 0 0 0 .225-1.54c0-1.149-.414-2.056-1.045-2.741l-.018-.02c-.05-.053-.1-.104-.152-.156l-.032-.031a3.651 3.651 0 0 0-.186-.166c-.051-.043-.103-.085-.155-.126-.013-.01-.026-.018-.036-.029l-.17-.124c-.011-.005-.019-.013-.03-.018a4.985 4.985 0 0 0-.643-.37c-.008-.005-.018-.007-.026-.012-.064-.031-.129-.06-.194-.088l-.06-.026a4.633 4.633 0 0 0-.17-.067l-.064-.024-.16-.057-.07-.023a3.918 3.918 0 0 0-.16-.049c-.024-.008-.047-.013-.073-.02a3.599 3.599 0 0 0-.163-.042l-.067-.016-.176-.038c-.018-.003-.036-.008-.054-.01a4.694 4.694 0 0 0-.458-.076c-.02-.002-.041-.002-.062-.005-.054-.005-.106-.01-.16-.013-.031-.002-.06-.002-.09-.005-.045-.003-.086-.005-.128-.005-.033 0-.067-.003-.103-.003l-.067-.002h-.026c-.111 0-.222.005-.33.013-.022.002-.042.002-.063.005-.111.01-.22.02-.323.039a5.432 5.432 0 0 0-2.937 1.525c-.385.39-.63.776-.706 1.052h.003a16.07 16.07 0 0 1 3.069-.455c1.602-.11 2.942.802 2.877 2.203a3.305 3.305 0 0 1-.057.473l-.008.044a3.193 3.193 0 0 1-.064.243c-.016.047-.031.093-.05.14-.01.028-.023.057-.035.085a2.5 2.5 0 0 1-.055.116.97.97 0 0 1-.049.088 1.231 1.231 0 0 1-.06.098c-.02.032-.043.063-.064.094-.018.025-.036.051-.057.077-.034.041-.07.08-.106.117l-.03.033c-.05.05-.102.093-.156.137-.01.008-.023.016-.034.023-.044.035-.09.066-.137.096-.015.008-.028.018-.044.026a1.888 1.888 0 0 1-.14.077c-.015.008-.028.016-.043.021a2.14 2.14 0 0 1-.191.08c-.06.024-.12.044-.181.062l-.016.006c-.28.082-.58.118-.884.118-.92 0-1.875-.34-2.423-.83a.248.248 0 0 0-.165-.064c-.013 0-.026.005-.036.008-.01.002-.024.002-.034.007-.015.006-.031.01-.046.018a.307.307 0 0 0-.068.047l-.013.016a.347.347 0 0 0-.046.072c-.003.005-.003.008-.005.013a.235.235 0 0 0-.016.114c.078.78.569 1.758 1.738 2.492 1.111.7 3.451.708 5.116-.432l.047-.03.15-.11.064-.051a3.44 3.44 0 0 0 .21-.178l.1-.094c.037-.028.067-.062.099-.093Z"/><path fill="#33251F" d="M26.339 40.556a.42.42 0 0 0-.109-.028h-2.404a.42.42 0 0 0-.109.029c-.217.087-.338.315-.235.553.104.24.582.915 1.546.915.965 0 1.443-.675 1.546-.915.101-.24-.018-.466-.235-.553Z"/><path fill="#1A1717" d="M19.374 40.794c.925 0 1.675-.776 1.675-1.734 0-.959-.75-1.735-1.675-1.735s-1.675.776-1.675 1.734c0 .959.75 1.735 1.675 1.735ZM30.677 40.794c.925 0 1.675-.776 1.675-1.734 0-.959-.75-1.735-1.675-1.735s-1.675.776-1.675 1.734c0 .959.75 1.735 1.675 1.735ZM27.438 44.158c-.931.553-3.982.553-4.91 0-.535-.318-1.08.168-.858.654.217.478 1.882 1.585 3.322 1.585 1.437 0 3.082-1.107 3.299-1.585.22-.486-.32-.972-.853-.654Z"/></svg>