<svg width="50" height="51" viewBox="0 0 50 51" fill="none" xmlns="http://www.w3.org/2000/svg">
<path d="M45.289 20.5195L45.2613 15.7486L49.8499 13.181L24.8565 0L0 13.4446L9.96563 19.1664L9.9855 22.5662L9.98753 22.8378L10.0786 22.7942C9.97354 22.9367 9.90622 23.0833 9.90824 23.23C9.91615 24.9021 16.6662 26.2255 24.9974 26.1801C33.3246 26.1365 40.0647 24.7358 40.0588 23.0675C40.0588 22.9209 39.9816 22.7784 39.8785 22.6317L39.9696 22.6753V22.4038L39.9518 18.9901L44.2729 16.3016L44.2966 20.5256C43.8211 20.7296 43.4903 21.1972 43.4942 21.7442C43.4982 22.4614 44.0806 23.0418 44.8038 23.0359C45.531 23.0318 46.1075 22.4454 46.1034 21.7302C46.0994 21.1833 45.7666 20.7197 45.289 20.5195ZM24.9913 25.0289C17.5994 25.0704 11.6041 24.2581 11.5982 23.222C11.5924 22.1858 17.5796 21.3161 24.9717 21.2784C32.3656 21.2368 38.3589 22.0451 38.3629 23.0793C38.3686 24.1117 32.3853 24.9893 24.9913 25.0289ZM39.6109 16.2203C38.6103 15.1683 35.0243 12.3905 24.924 12.4481C14.8097 12.5017 11.2693 15.3131 10.2808 16.3809L10.2749 15.3745C10.2749 15.3745 13.1437 11.0098 24.9163 10.9483C36.6829 10.8849 39.6052 15.2159 39.6052 15.2159L39.6109 16.2203ZM43.7517 23.321L43.2425 30.709C44.8176 28.2345 46.1332 29.1557 46.1332 29.1557L46.1016 23.309C44.4094 23.973 43.7517 23.321 43.7517 23.321Z" fill="black"/>
<path d="M34.6483 36.916H15.3355C13.2543 36.916 11.5505 38.5551 11.5505 40.5614C11.5505 42.5651 13.2543 44.2068 15.3355 44.2068H34.6483C36.7295 44.2068 38.4332 42.5676 38.4332 40.5614C38.4358 38.5551 36.7321 36.916 34.6483 36.916Z" fill="#141313"/>
<path d="M24.9302 23.5752C27.1696 23.5752 28.974 23.8868 30.4888 24.5986C31.9902 25.3042 33.279 26.437 34.436 28.1973C35.9591 30.5145 36.4651 34.2337 36.0688 38.3184L35.978 39.1396C35.7062 41.3101 35.4689 42.8742 34.9976 44.1885C34.5417 45.4594 33.8567 46.5188 32.6343 47.6221H32.6333C30.5916 49.4661 27.7466 49.916 25.1079 49.916H24.7515C22.1133 49.916 19.2706 49.4665 17.2261 47.6221C16.0036 46.5188 15.3187 45.4594 14.8628 44.1885C14.5093 43.2027 14.2869 42.0763 14.0835 40.6592L13.8823 39.1396C13.3318 34.7357 13.7993 30.6708 15.4243 28.1963C16.5812 26.4352 17.8697 25.3038 19.3706 24.5986C20.8853 23.8871 22.6903 23.5752 24.9302 23.5752Z" fill="white" stroke="black" stroke-width="2"/>
<path d="M28.7796 29.0613C28.8157 29.0225 28.8519 28.9863 28.8881 28.9476C28.914 28.9191 28.9398 28.8881 28.9657 28.8596C29.0252 28.7898 29.082 28.72 29.1363 28.6476L29.1596 28.6166C29.2113 28.5468 29.2578 28.4744 29.3044 28.3995C29.3173 28.3788 29.3302 28.3555 29.3432 28.3348C29.3871 28.2598 29.4311 28.1849 29.4724 28.1047C29.4802 28.0918 29.4854 28.0815 29.4905 28.0685C29.5888 27.8746 29.6741 27.6652 29.7439 27.4454L29.7517 27.4222C29.8939 26.9646 29.9766 26.4553 29.9766 25.8813C29.9766 24.7334 29.5629 23.8259 28.9321 23.1408C28.9243 23.133 28.9192 23.1279 28.914 23.1201C28.8649 23.0684 28.8132 23.0167 28.7615 22.965L28.7304 22.934C28.6703 22.8767 28.6082 22.8216 28.5443 22.7685C28.4926 22.7246 28.4409 22.6832 28.3892 22.6418C28.3762 22.6315 28.3633 22.6237 28.353 22.6134L28.1823 22.4893C28.172 22.4841 28.1642 22.4764 28.1539 22.4712C27.9471 22.3316 27.7325 22.2075 27.5101 22.1015C27.5024 22.0963 27.492 22.0937 27.4843 22.0886C27.4196 22.0575 27.355 22.0291 27.2904 22.0007L27.2309 21.9748C27.174 21.9515 27.1172 21.9283 27.0603 21.9076C27.0396 21.8998 27.0163 21.8921 26.9956 21.8843C26.9414 21.8636 26.8871 21.8455 26.8354 21.8274L26.7655 21.8042C26.7113 21.7861 26.6595 21.7706 26.6053 21.755C26.582 21.7473 26.5587 21.7421 26.5329 21.7344C26.4786 21.7188 26.4243 21.7059 26.37 21.693L26.3028 21.6775C26.2433 21.6646 26.1838 21.6516 26.127 21.6387C26.1089 21.6361 26.0908 21.6309 26.0727 21.6284C25.9201 21.5948 25.7676 21.5715 25.6151 21.5534C25.5944 21.5508 25.5737 21.5508 25.553 21.5482C25.4987 21.543 25.447 21.5379 25.3927 21.5353C25.3617 21.5327 25.3333 21.5327 25.3022 21.5301C25.2583 21.5275 25.2169 21.5249 25.1755 21.5249C25.1419 21.5249 25.1083 21.5224 25.0721 21.5224C25.0489 21.5224 25.0256 21.5198 25.0049 21.5198H24.9791C24.8679 21.5198 24.7567 21.5249 24.6481 21.5327C24.6274 21.5353 24.6068 21.5353 24.5861 21.5379C24.4749 21.5482 24.3663 21.5586 24.2629 21.5767C22.9935 21.7835 21.9671 22.4505 21.3259 23.102C20.9407 23.4924 20.6951 23.8776 20.6201 24.1543H20.6227C21.4449 23.9449 22.5074 23.7613 23.6915 23.6992C25.2945 23.5881 26.6337 24.5007 26.5691 25.902C26.5613 26.07 26.5406 26.2277 26.5122 26.3751L26.5044 26.4191C26.4915 26.4759 26.476 26.5328 26.4605 26.5871C26.4527 26.613 26.445 26.6388 26.4398 26.6621C26.4243 26.7086 26.4088 26.7552 26.3907 26.8017C26.3803 26.8301 26.3674 26.8586 26.3545 26.887C26.3364 26.9284 26.3183 26.9672 26.3002 27.0034C26.2847 27.0344 26.2692 27.0628 26.2511 27.0913C26.233 27.1249 26.2123 27.1585 26.1916 27.1895C26.1709 27.2205 26.1476 27.2515 26.127 27.2826C26.1089 27.3084 26.0908 27.3343 26.0701 27.3601C26.0365 27.4015 26.0003 27.4403 25.9641 27.4765C25.9537 27.4868 25.9434 27.4997 25.9331 27.5101C25.8839 27.5592 25.8322 27.6032 25.7779 27.6471C25.7676 27.6549 25.7547 27.6626 25.7443 27.6704C25.7003 27.7046 25.6546 27.7365 25.6073 27.766C25.5918 27.7738 25.5789 27.7841 25.5633 27.7919C25.5168 27.8203 25.4703 27.8462 25.4237 27.8695C25.4082 27.8772 25.3953 27.885 25.3798 27.8901C25.3307 27.9134 25.279 27.9367 25.2247 27.9574C25.2143 27.9625 25.2014 27.9677 25.1885 27.9703C25.129 27.9935 25.0695 28.0142 25.0075 28.0323C25.0023 28.0349 24.9972 28.0349 24.992 28.0375C24.7128 28.1202 24.4129 28.1564 24.1078 28.1564C23.1874 28.1564 22.2334 27.8152 21.6853 27.3265C21.64 27.2853 21.5811 27.2623 21.5198 27.2619C21.5069 27.2619 21.494 27.2671 21.4836 27.2696C21.4733 27.2722 21.4604 27.2722 21.45 27.2774C21.4345 27.2826 21.419 27.2877 21.4035 27.2955C21.3776 27.3084 21.3569 27.3239 21.3363 27.342C21.3311 27.3472 21.3285 27.3524 21.3233 27.3575C21.3052 27.3782 21.2897 27.4041 21.2768 27.4299C21.2742 27.4351 21.2742 27.4377 21.2716 27.4429C21.2587 27.4765 21.2509 27.5153 21.2561 27.5566C21.3337 28.3374 21.8249 29.3147 22.9935 30.0489C24.1052 30.7496 26.445 30.7573 28.1099 29.6172L28.1565 29.5861C28.2056 29.5499 28.2573 29.5137 28.3064 29.4776C28.3271 29.462 28.3504 29.4439 28.3711 29.4258C28.4435 29.369 28.5133 29.3095 28.5805 29.2475L28.6813 29.1544C28.7175 29.1259 28.7485 29.0923 28.7796 29.0613Z" fill="black"/>
<path d="M26.3389 40.5565C26.3042 40.5422 26.2677 40.5327 26.2304 40.5281H23.826C23.7898 40.5332 23.7536 40.541 23.7174 40.5565C23.5002 40.6444 23.3787 40.8719 23.4821 41.1098C23.5855 41.3502 24.0638 42.025 25.0282 42.025C25.9925 42.025 26.4708 41.3502 26.5742 41.1098C26.675 40.8693 26.5561 40.6444 26.3389 40.5565Z" fill="#33251F"/>
<path d="M19.3739 40.7943C20.2992 40.7943 21.0493 40.0176 21.0493 39.0595C21.0493 38.1014 20.2992 37.3247 19.3739 37.3247C18.4487 37.3247 17.6986 38.1014 17.6986 39.0595C17.6986 40.0176 18.4487 40.7943 19.3739 40.7943Z" fill="#1A1717"/>
<path d="M30.6772 40.7943C31.6024 40.7943 32.3525 40.0176 32.3525 39.0595C32.3525 38.1014 31.6024 37.3247 30.6772 37.3247C29.7519 37.3247 29.0018 38.1014 29.0018 39.0595C29.0018 40.0176 29.7519 40.7943 30.6772 40.7943Z" fill="#1A1717"/>
<path d="M27.4377 44.1579C26.507 44.7111 23.4562 44.7111 22.5281 44.1579C21.9929 43.8399 21.4474 44.3259 21.6697 44.812C21.8869 45.2903 23.5519 46.3968 24.9919 46.3968C26.4294 46.3968 28.0737 45.2903 28.2909 44.812C28.5106 44.3259 27.9703 43.8399 27.4377 44.1579Z" fill="#1A1717"/>
</svg>
