<svg xmlns="http://www.w3.org/2000/svg" width="200" height="200" fill="none" viewBox="0 0 200 200" id="graduation-hat">
  <path fill="#1D3A58" d="M152.67 99.5178H50.3856V131.228H50.3865C50.3859 131.28 50.3856 131.333 50.3856 131.386C50.3856 145.635 73.2827 157.186 101.528 157.186C129.773 157.186 152.67 145.635 152.67 131.386C152.67 131.333 152.669 131.28 152.669 131.228H152.67V99.5178Z"></path>
  <path fill="#162C39" d="M152.67 109.917L102.751 133.762C101.316 134.447 99.6491 134.45 98.2121 133.769L50.3856 111.11V99.5178H152.67V109.917Z"></path>
  <path fill="#1D3956" d="M98.3654 40.1603C99.7526 39.5373 101.341 39.5422 102.724 40.1738L183.659 77.1306C187.738 78.9933 187.788 84.7707 183.742 86.7035L102.751 125.391C101.316 126.076 99.649 126.079 98.212 125.398L16.2736 86.5785C12.2 84.6486 12.2591 78.8316 16.3711 76.9848L98.3654 40.1603Z"></path>
  <path fill="#FAB018" d="M59.0146 132.685C59.0146 136.93 55.5731 140.372 51.3278 140.372C47.0825 140.372 43.641 136.93 43.641 132.685C43.641 128.44 47.0825 124.998 51.3278 124.998C55.5731 124.998 59.0146 128.44 59.0146 132.685Z"></path>
  <path fill="#FAB018" d="M46.1943 136.566H56.9479L60.9016 152.068C61.9665 156.243 58.8118 160.303 54.5026 160.303H48.1538C43.7641 160.303 40.5962 156.1 41.8055 151.88L46.1943 136.566Z"></path>
  <path fill="#FAB018" d="M51.7784 97.1828L97.796 77.4957C99.8645 76.6107 102.259 77.5702 103.144 79.6387C104.029 81.7072 103.069 84.1014 101.001 84.9863L55.1558 104.616V138.261H47.5269V102.509C47.5269 101.379 47.773 100.228 48.5237 99.3834C49.4231 98.3712 50.5497 97.6275 51.7803 97.1872L51.7784 97.1828Z"></path>
</svg>
