<svg xmlns="http://www.w3.org/2000/svg" viewBox="0 0 360.14 283.84" id="graduation-cap">
  <g>
    <g>
      <path fill="#fff" d="M342.53,40.88,244,5.37A92.22,92.22,0,0,0,212.7,0a96.16,96.16,0,0,0-29.1,4.51L19.32,56.64C8,60.23.25,70.3,0,81.69s6.62,21.06,17.48,25L72.73,126.9l8.83,52.58c1.47,8.76,7.69,20.53,29,26.78,11,3.23,25.08,4.86,41.91,4.86a332.94,332.94,0,0,0,54.05-4.81q2.34-.39,4.65-.81c-.09.7-.15,1.4-.2,2.11-.08,1-.11,2-.11,3a42,42,0,0,0,5.31,20.49L201.57,262l12.63,9.27a71.42,71.42,0,0,0,39.6,12.61h0a62.39,62.39,0,0,0,37.57-12.61l13.15-9.65L289,231.9a41.76,41.76,0,0,0,5.69-18.79c.05-.77.07-1.58.07-2.46a42,42,0,0,0-10.66-27.91c23.75-12.23,34.41-26.53,31.71-42.61l-6.69-39.82,31.1-9.13c11.56-3.4,19.55-13.46,19.89-25C360.47,54.77,353.55,44.85,342.53,40.88Z"></path>
      <ellipse cx="198.69" cy="159.8" fill="#6d6d6d" rx="99.77" ry="28.16" transform="rotate(-9.53 198.8 159.84)"></ellipse>
      <ellipse cx="182.61" cy="64.04" fill="#6d6d6d" rx="99.77" ry="28.16" transform="rotate(-9.53 182.687 64.031)"></ellipse>
      <rect width="199.55" height="97.11" x="90.87" y="63.37" fill="#6d6d6d" transform="rotate(-9.53 190.713 111.933)"></rect>
      <path fill="#939393" d="M334.88,73l-95.32,28-20.27,6h0L162.5,123.58a75.58,75.58,0,0,1-46.87-1.23L24,88.86c-7.17-2.61-6.49-11.71,1-14.1L189.35,22.62a75.68,75.68,0,0,1,48.16.63l98.58,35.51C343.39,61.39,342.6,70.68,334.88,73Z"></path>
      <path fill="#6d6d6d" d="M180.07,68.76s29.55,27.09,39.22,38.14l13.88,13.35,15.32-6.13s-7.28-28.34-8.42-28.34-46-21.74-46-21.74Z"></path>
      <path fill="#ff9f1c" d="M225.45,255.92s27.34,20.08,54.68,0l-19.34-37H243Z"></path>
      <path fill="#ff9f1c" d="M251.81,227a9,9,0,0,1-9-9l-.21-101a24,24,0,0,0-12.85-21.26L182.83,71a9,9,0,0,1,8.4-15.92l46.91,24.73A42,42,0,0,1,260.6,117l.21,101a9,9,0,0,1-9,9Z"></path>
      <path fill="#ff9f1c" d="M275.79,210.65c0,.43,0,.86-.05,1.28a23,23,0,0,1-45.9-1.28c0-.55,0-1.09.06-1.63a23,23,0,0,1,45.89,1.63Z"></path>
      <path fill="#ed8c18" d="M275.74,211.93a23,23,0,0,1-45.9-1.28c0-.55,0-1.09.06-1.63a41.36,41.36,0,0,0,45.84,2.91Z"></path>
    </g>
  </g>
</svg>
