<svg width="30" height="30" viewBox="0 0 30 30" fill="none" xmlns="http://www.w3.org/2000/svg">
<circle cx="15" cy="15" r="13" stroke="black" stroke-width="4"/>
<path d="M16.4317 17.3486H13.0355C13.0444 16.7079 13.1065 16.1562 13.222 15.6935C13.3463 15.2237 13.5549 14.8001 13.8479 14.4229C14.1498 14.0456 14.5494 13.6719 15.0466 13.3017C15.4639 13.0027 15.828 12.718 16.1387 12.4475C16.4495 12.177 16.6937 11.8994 16.8713 11.6146C17.0488 11.3228 17.1376 10.9989 17.1376 10.643C17.1376 10.2301 17.0577 9.8884 16.8979 9.6179C16.7469 9.34028 16.5161 9.13028 16.2053 8.98791C15.9034 8.84554 15.5216 8.77436 15.0599 8.77436C14.6781 8.77436 14.323 8.84198 13.9945 8.97724C13.6659 9.10537 13.3951 9.30468 13.182 9.57519C12.9778 9.84569 12.8713 10.2016 12.8624 10.643H9C9.02664 9.66773 9.30633 8.86334 9.83907 8.2298C10.3807 7.58913 11.1043 7.11576 12.01 6.80966C12.9156 6.49645 13.9323 6.33984 15.0599 6.33984C16.303 6.33984 17.3685 6.50357 18.2564 6.83102C19.1443 7.15135 19.8235 7.62473 20.2941 8.25115C20.7647 8.87046 21 9.62502 21 10.5148C21 11.1341 20.8491 11.6858 20.5472 12.1699C20.2453 12.6468 19.8502 13.0917 19.3618 13.5046C18.8735 13.9175 18.3363 14.3446 17.7503 14.7859C17.2442 15.1489 16.8979 15.5298 16.7114 15.9284C16.5339 16.3271 16.4406 16.8004 16.4317 17.3486ZM12.636 20.648C12.636 20.1924 12.8313 19.8151 13.222 19.5161C13.6127 19.21 14.1365 19.057 14.7936 19.057C15.4417 19.057 15.9612 19.21 16.3518 19.5161C16.7514 19.8151 16.9512 20.1924 16.9512 20.648C16.9512 21.0893 16.7514 21.463 16.3518 21.7691C15.9612 22.0752 15.4417 22.2283 14.7936 22.2283C14.1365 22.2283 13.6127 22.0752 13.222 21.7691C12.8313 21.463 12.636 21.0893 12.636 20.648Z" fill="#212121"/>
</svg>
